<svg xmlns="http://www.w3.org/2000/svg" width="356.17" height="81.964" viewBox="0 0 356.17 81.964"><defs><style>.a{fill:#fff;}</style></defs><path class="a" d="M252.789,699.876H246.13v-.1a3.03,3.03,0,0,1,3.3-3.126,3.108,3.108,0,0,1,3.354,3.126Zm.94-4.6a5.83,5.83,0,0,0-2.007-1.144,6.851,6.851,0,0,0-2.287-.382,6.562,6.562,0,0,0-2.236.382,5.919,5.919,0,0,0-1.981,1.118,5.79,5.79,0,0,0-1.983,4.422V701.5a6.615,6.615,0,0,0,.433,2.365,4.917,4.917,0,0,0,1.371,1.855,7.269,7.269,0,0,0,4.853,1.55h5.795v-2.9h-5.795a5.085,5.085,0,0,1-2.387-.457,2.374,2.374,0,0,1-1.17-1.17h9.352v-2.973a5.812,5.812,0,0,0-1.957-4.5" transform="translate(-39.207 -689)"/><path class="a" d="M272.547,695.307a5.974,5.974,0,0,0-1.983-1.144,7.064,7.064,0,0,0-2.286-.379,6.721,6.721,0,0,0-2.263.379,5.469,5.469,0,0,0-1.98,1.12,5.637,5.637,0,0,0-1.959,4.42v1.831a6.65,6.65,0,0,0,.432,2.363,5.135,5.135,0,0,0,1.347,1.855h.027a7.266,7.266,0,0,0,4.853,1.55h5.794v-2.9h-5.794c-3.762,0-3.762-2.16-3.762-2.871v-1.73a3.017,3.017,0,0,1,3.3-3.125,3.107,3.107,0,0,1,3.354,3.125v.484h2.9v-.484a5.752,5.752,0,0,0-1.982-4.5" transform="translate(-42.244 -689.006)"/><path class="a" d="M290.476,701.3a3.116,3.116,0,0,1-3.354,3.1,3.06,3.06,0,0,1-3.3-3.1v-1.5a3.031,3.031,0,0,1,3.3-3.127,3.108,3.108,0,0,1,3.354,3.127Zm.914-6.048a6.741,6.741,0,0,0-4.269-1.476,7.341,7.341,0,0,0-2.236.357,6.322,6.322,0,0,0-1.983,1.118,5.808,5.808,0,0,0-1.983,4.447v1.6a5.933,5.933,0,0,0,6.2,6,6.653,6.653,0,0,0,4.293-1.524,5.75,5.75,0,0,0,1.959-4.473v-1.6a5.808,5.808,0,0,0-1.983-4.447" transform="translate(-45.282 -689.005)"/><path class="a" d="M299.763,688.088v2.871h4.779v12.528h-4.779v2.9h12.455v-2.9h-4.78v-15.4Z" transform="translate(-48.319 -688.088)"/><path class="a" d="M327.968,699.876H321.31v-.1a3.029,3.029,0,0,1,3.3-3.126,3.108,3.108,0,0,1,3.354,3.126Zm.941-4.6a5.842,5.842,0,0,0-2.008-1.144,6.851,6.851,0,0,0-2.287-.382,6.559,6.559,0,0,0-2.236.382,5.891,5.891,0,0,0-1.98,1.118,5.782,5.782,0,0,0-1.984,4.422V701.5a6.616,6.616,0,0,0,.433,2.365,4.918,4.918,0,0,0,1.371,1.855,7.275,7.275,0,0,0,4.854,1.55h5.794v-2.9h-5.794a5.086,5.086,0,0,1-2.388-.457,2.373,2.373,0,0,1-1.169-1.17h9.351v-2.973a5.814,5.814,0,0,0-1.956-4.5" transform="translate(-51.325 -689)"/><path class="a" d="M249.713,738.882h-.331a5.394,5.394,0,0,1-1.956-.254c-1.3-.432-1.3-1.117-1.3-1.373h-2.9a4.005,4.005,0,0,0,2.593,3.838,9.389,9.389,0,0,0,3.407.66,8.846,8.846,0,0,0,3.379-.609,3.943,3.943,0,0,0,2.643-3.889c0-2.515-2.058-3.659-4.065-3.659h-2.822a1.772,1.772,0,0,1-1.6-.789v-.481c0-.686,1.347-1.194,2.49-1.194s2.465.636,2.465,1.194h2.872a3.3,3.3,0,0,0-.559-1.9,3.655,3.655,0,0,0-1.373-1.246,6.627,6.627,0,0,0-3.406-.941,6.82,6.82,0,0,0-3.456.941,4.065,4.065,0,0,0-1.373,1.246,3.49,3.49,0,0,0-.559,1.9v.481a3.3,3.3,0,0,0,1.576,2.873,5.58,5.58,0,0,0,2.922.788h2.822c.965,0,1.168.633,1.168.786,0,1.093-.889,1.627-2.643,1.627" transform="translate(-39.207 -694.559)"/><path class="a" d="M268.035,741.783a6.794,6.794,0,0,0,3.354-.863v.863h2.9V728.417h-2.9v7.369a3.1,3.1,0,0,1-3.354,3.1,3.046,3.046,0,0,1-3.3-3.1v-7.369h-2.9v7.369a5.932,5.932,0,0,0,6.2,6" transform="translate(-42.205 -694.588)"/><path class="a" d="M290.234,735.939a3.055,3.055,0,0,1-3.33,3.1,3.1,3.1,0,0,1-3.33-3.1v-1.5a3.106,3.106,0,0,1,3.33-3.151,3.043,3.043,0,0,1,3.33,3.151Zm.965-6a6.833,6.833,0,0,0-7.625-.66v-.863h-2.9v19.21h2.9v-6.555a6.774,6.774,0,0,0,3.33.863c3.126,0,6.226-2.058,6.226-6v-1.5a5.8,5.8,0,0,0-1.932-4.5" transform="translate(-45.243 -694.589)"/><path class="a" d="M309.076,734.329h-6.658v-.1a3.029,3.029,0,0,1,3.3-3.127,3.108,3.108,0,0,1,3.354,3.127Zm.941-4.6a5.827,5.827,0,0,0-2.008-1.143,6.857,6.857,0,0,0-2.287-.383,6.559,6.559,0,0,0-2.237.383A5.919,5.919,0,0,0,301.5,729.7a5.79,5.79,0,0,0-1.981,4.423v1.83a6.611,6.611,0,0,0,.433,2.363,4.911,4.911,0,0,0,1.371,1.855,7.271,7.271,0,0,0,4.854,1.55h5.794v-2.9h-5.794a5.1,5.1,0,0,1-2.39-.457,2.378,2.378,0,0,1-1.168-1.167h9.351v-2.974a5.815,5.815,0,0,0-1.956-4.5" transform="translate(-48.28 -694.554)"/><path class="a" d="M327.23,728.616a6.671,6.671,0,0,0-2.186-.382,6.45,6.45,0,0,0-3.328.889v-.736h-2.9v13.368h2.9v-7.5a3.05,3.05,0,0,1,3.328-3.126c2.237,0,2.72,1.678,2.72,3.1v.483h2.871v-.483a5.99,5.99,0,0,0-1.626-4.447,4.733,4.733,0,0,0-1.78-1.168" transform="translate(-51.391 -694.559)"/><path class="a" d="M343.67,728.416h-6.709v2.9h3.812v7.572h-4.779v2.9h12.454v-2.9H343.67Z" transform="translate(-54.159 -694.588)"/><rect class="a" width="4.065" height="4.041" transform="translate(286.03 28.897)"/><path class="a" d="M364.006,734.329h-6.658v-.1a3.03,3.03,0,0,1,3.3-3.127,3.108,3.108,0,0,1,3.354,3.127Zm.941-4.6a5.827,5.827,0,0,0-2.008-1.143,6.85,6.85,0,0,0-2.287-.383,6.565,6.565,0,0,0-2.236.383,5.891,5.891,0,0,0-1.98,1.117,5.784,5.784,0,0,0-1.984,4.423v1.83a6.608,6.608,0,0,0,.433,2.363,4.91,4.91,0,0,0,1.371,1.855,7.275,7.275,0,0,0,4.854,1.55H366.9v-2.9H361.11a5.1,5.1,0,0,1-2.39-.457,2.378,2.378,0,0,1-1.168-1.167H366.9v-2.974a5.815,5.815,0,0,0-1.956-4.5" transform="translate(-57.134 -694.554)"/><path class="a" d="M382.849,735.786a3.1,3.1,0,0,1-3.354,3.1,3.045,3.045,0,0,1-3.3-3.1v-7.369h-2.9v7.369a5.932,5.932,0,0,0,6.2,6,6.8,6.8,0,0,0,3.354-.863v.863h2.9V728.417h-2.9Z" transform="translate(-60.172 -694.588)"/><path class="a" d="M401,728.616a6.67,6.67,0,0,0-2.185-.382,6.458,6.458,0,0,0-3.328.889v-.736h-2.9v13.368h2.9v-7.5a3.05,3.05,0,0,1,3.328-3.126c2.236,0,2.72,1.678,2.72,3.1v.483h2.87v-.483a5.99,5.99,0,0,0-1.626-4.447,4.72,4.72,0,0,0-1.78-1.168" transform="translate(-63.282 -694.559)"/><path class="a" d="M419.324,734.328h-6.658v-.1a3.028,3.028,0,0,1,3.3-3.124,3.106,3.106,0,0,1,3.354,3.124Zm2.9-.1a5.752,5.752,0,0,0-3.964-5.642,6.854,6.854,0,0,0-2.287-.38,6.555,6.555,0,0,0-2.236.38,5.889,5.889,0,0,0-1.983,1.119,5.783,5.783,0,0,0-1.981,4.421v1.83a6.632,6.632,0,0,0,.431,2.363,4.91,4.91,0,0,0,1.373,1.855,7.271,7.271,0,0,0,4.853,1.551h5.794v-2.9h-5.794a5.062,5.062,0,0,1-2.389-.457,2.368,2.368,0,0,1-1.168-1.168h9.351Z" transform="translate(-66.051 -694.554)"/><path class="a" d="M252.789,769.263a3.335,3.335,0,0,1-6.658,0V767.79a3.028,3.028,0,0,1,3.3-3.125,3.106,3.106,0,0,1,3.354,3.125Zm0-6.631a6.868,6.868,0,0,0-3.354-.863,6.58,6.58,0,0,0-2.236.379,5.817,5.817,0,0,0-1.98,1.12,5.7,5.7,0,0,0-1.984,4.421v1.957a5.708,5.708,0,0,0,2.085,4.22,6.493,6.493,0,0,0,4.14,1.422,6.843,6.843,0,0,0,3.33-.863v.863h2.9v-18.3h-2.9Z" transform="translate(-39.207 -699.194)"/><path class="a" d="M271.633,770.237a3.1,3.1,0,0,1-3.354,3.1,3.045,3.045,0,0,1-3.3-3.1v-7.369h-2.9v7.369a5.932,5.932,0,0,0,6.2,6,6.8,6.8,0,0,0,3.354-.863v.863h2.9V762.868h-2.9Z" transform="translate(-42.244 -700.142)"/><path class="a" d="M306.265,769.263a3.335,3.335,0,0,1-6.658,0V767.79a3.027,3.027,0,0,1,3.3-3.125,3.107,3.107,0,0,1,3.354,3.125Zm0-6.631a6.872,6.872,0,0,0-3.354-.863,6.581,6.581,0,0,0-2.237.379,5.868,5.868,0,0,0-1.983,1.12,5.71,5.71,0,0,0-1.981,4.421v1.957a5.708,5.708,0,0,0,2.085,4.22,6.494,6.494,0,0,0,4.14,1.422,6.848,6.848,0,0,0,3.33-.863v.863h2.9v-18.3h-2.9Z" transform="translate(-47.827 -699.194)"/><path class="a" d="M323.228,762.867h-6.709v2.9h3.812v7.573h-4.779v2.9h12.454v-2.9h-4.778Z" transform="translate(-50.864 -700.141)"/><rect class="a" width="4.066" height="4.041" transform="translate(268.882 57.795)"/><path class="a" d="M343.951,770.389a3.115,3.115,0,0,1-3.354,3.1,3.047,3.047,0,0,1-3.3-3.1v-1.5a3.023,3.023,0,0,1,3.3-3.151,3.126,3.126,0,0,1,3.354,3.151Zm0-6.658a6.867,6.867,0,0,0-3.354-.863,6.114,6.114,0,0,0-2.261.382,5.827,5.827,0,0,0-2.01,1.142,5.712,5.712,0,0,0-1.93,4.5v1.5a5.9,5.9,0,0,0,6.2,6,6.868,6.868,0,0,0,3.354-.865v.585c0,.711,0,3.1-3.787,3.1h-1.422v2.9h1.422a7.315,7.315,0,0,0,4.853-1.55h.028a5.13,5.13,0,0,0,1.346-1.855,7.927,7.927,0,0,0,.457-2.593v-13.24h-2.9Z" transform="translate(-53.902 -700.142)"/><rect class="a" width="4.066" height="4.041" transform="translate(300.494 57.795)"/><path class="a" d="M360.914,762.867h-6.709v2.9h3.812v7.573H353.24v2.9h12.451v-2.9h-4.778Z" transform="translate(-56.939 -700.141)"/><path class="a" d="M380.426,769.518c0,1.881,0,2.873-1.626,2.873h-.153c-1.6,0-1.6-1.043-1.6-2.873v-4.7h4.244v-2.9h-4.244v-4.931h-2.895v4.931h-3.28v2.9h3.28v4.7a8.7,8.7,0,0,0,.633,4.092c.661,1.144,1.882,1.676,3.863,1.676h.153c1.982,0,3.2-.532,3.864-1.676a8.251,8.251,0,0,0,.66-4.092v-1.473h-2.9Z" transform="translate(-59.781 -699.194)"/><path class="a" d="M398.985,772.855a4.4,4.4,0,0,1-2.44.483h-.226a4.513,4.513,0,0,1-2.467-.483c-.278-.179-.634-.484-.634-1.5,0-1.117.407-1.423.737-1.627a5.1,5.1,0,0,1,2.364-.381h.226a4.938,4.938,0,0,1,2.339.381c.382.2.788.509.788,1.627,0,1.016-.382,1.321-.687,1.5m2.288-8.438a5.133,5.133,0,0,0-3.889-1.55h-5.337v2.9h5.337a2.505,2.505,0,0,1,2.517,2.312c-.053-.634-1.246-1.625-3.583-1.625-3.838,0-6,1.726-6,4.9a5.189,5.189,0,0,0,.381,2.034,3.821,3.821,0,0,0,1.194,1.574,6.848,6.848,0,0,0,4.424,1.27h.226a8.024,8.024,0,0,0,3.33-.863v.863h2.9v-7.419a8.635,8.635,0,0,0-.382-2.566,5.278,5.278,0,0,0-1.117-1.831" transform="translate(-62.916 -700.141)"/><path class="a" d="M409.769,756.991v2.87h4.778v12.529h-4.778v2.9h12.452v-2.9h-4.78v-15.4Z" transform="translate(-66.051 -699.194)"/><rect class="a" width="12.454" height="2.87" transform="translate(204.026 0.001)"/><rect class="a" width="12.452" height="2.87" transform="translate(251.241 28.912)"/><rect class="a" width="51.712" height="11.921" transform="translate(0 0.002)"/><path class="a" d="M163.02,752.025c-6.436,0-13.822-3.375-13.822-12.98v-6.118c0-9.6,7.386-12.98,13.717-12.98,8.125,0,13.928,5.276,13.928,12.98v6.118c0,9.6-7.386,12.98-13.823,12.98M39.683,733.244H12.045v-.418c0-9.6,7.385-12.981,13.717-12.981,8.124,0,13.921,5.274,13.921,12.981Zm137.16-45.156v23.421a28.487,28.487,0,0,0-13.928-3.586,27.315,27.315,0,0,0-9.284,1.58,24.482,24.482,0,0,0-8.23,4.644c-5.379,4.534-8.125,10.971-8.23,18.359v.752H113.2a19.248,19.248,0,0,0-10.733-3.072H90.752c-4.011,0-6.437-2.428-6.65-3.272v-2c0-2.85,5.592-4.962,10.344-4.962s10.229,2.636,10.229,4.962H116.6a13.735,13.735,0,0,0-2.32-7.916,15.171,15.171,0,0,0-5.7-5.165,27.549,27.549,0,0,0-14.136-3.906A28.307,28.307,0,0,0,80.1,711.83a16.926,16.926,0,0,0-5.7,5.165,14.534,14.534,0,0,0-2.317,7.916v2a13.7,13.7,0,0,0,6.541,11.923,23.176,23.176,0,0,0,12.133,3.27h11.711c4.008,0,4.851,2.638,4.851,3.268,0,4.541-3.687,6.753-10.972,6.753H94.971a22.423,22.423,0,0,1-8.123-1.054c-5.381-1.793-5.381-4.858-5.381-5.914a4.865,4.865,0,0,1,.854-2.96,19.625,19.625,0,0,1-5.1-2.265,14.565,14.565,0,0,1-4.477-4.457,13.1,13.1,0,0,1-1.122-2.235h-19.9v-.418A23.872,23.872,0,0,0,35.256,709.4a28.466,28.466,0,0,0-9.494-1.584,27.257,27.257,0,0,0-9.286,1.584,24.367,24.367,0,0,0-8.23,4.638A24.035,24.035,0,0,0,.018,732.4V740a27.484,27.484,0,0,0,1.791,9.812,21.48,21.48,0,0,0,1.043,2.107,20.136,20.136,0,0,0,4.656,5.594c4.875,4.151,11.49,6.364,19.74,6.435.138,0,.273,0,.414,0v0H51.715V751.916h-24.4c-3.857-.03-7.113-.563-9.572-1.894a9.89,9.89,0,0,1-4.851-4.855H69.44c0,7.278,3.693,12.977,10.761,16.142a39.069,39.069,0,0,0,14.141,2.745,36.631,36.631,0,0,0,14.032-2.535c7.171-2.953,10.972-8.438,10.972-16.144,0-.07,0-.14,0-.209H137.81a23.144,23.144,0,0,0,8.015,12.977,26.955,26.955,0,0,0,17.2,5.91,28.432,28.432,0,0,0,13.823-3.588v3.48H188.87V688.088Z" transform="translate(-0.003 -688.088)"/></svg>